<svg width="60" height="46" viewBox="0 0 60 46" fill="none" xmlns="http://www.w3.org/2000/svg">
<g id="Group 39806">
<path id="Vector" d="M25.5647 45.2203C25.2175 45.2203 24.853 45.1856 24.4884 45.0814C22.1104 44.4912 20.6523 42.0785 21.2425 39.7004L30.1299 4.15078C30.7374 1.77271 33.1502 0.331984 35.5283 0.904803C37.9063 1.51234 39.3471 3.92513 38.7569 6.30321L29.8695 41.8528C29.3661 43.8663 27.5608 45.2203 25.5647 45.2203Z" fill="#13B0F5"/>
<path id="Vector_2" d="M46.4681 36.3331C45.3225 36.3331 44.1942 35.8991 43.3263 35.0312C41.5905 33.2954 41.5905 30.4834 43.3263 28.7476L49.0718 23.002L43.3263 17.2564C41.5905 15.5206 41.5905 12.7086 43.3263 10.9728C45.0621 9.23694 47.8741 9.23694 49.6099 10.9728L58.4973 19.8602C60.2332 21.596 60.2332 24.408 58.4973 26.1438L49.6099 35.0312C48.742 35.8991 47.6138 36.3331 46.4681 36.3331Z" fill="#13B0F5"/>
<path id="Vector_3" d="M13.5323 36.3331C12.3866 36.3331 11.2583 35.8991 10.3904 35.0312L1.50304 26.1438C-0.232783 24.408 -0.232783 21.596 1.50304 19.8602L10.3904 10.9728C12.1263 9.23694 14.9383 9.23694 16.6741 10.9728C18.4099 12.7086 18.4099 15.5206 16.6741 17.2564L10.9285 23.002L16.6741 28.7476C18.4099 30.4834 18.4099 33.2954 16.6741 35.0312C15.8062 35.8991 14.6779 36.3331 13.5323 36.3331Z" fill="#13B0F5"/>
</g>
</svg>
